<svg xmlns="http://www.w3.org/2000/svg" width="110" height="110" viewBox="0 0 110 110" fill="#000000"><path d="M 67.819967,94.355812 H 42.379501 v -3.520064 q 1.226689,-0.106669 2.506713,-0.213338 1.333358,-0.106668 2.293375,-0.426674 1.493361,-0.480009 2.186707,-1.653364 0.74668,-1.226689 0.74668,-3.146724 V 52.915053 q 0,-1.706698 -0.800014,-3.09339 -0.746681,-1.440027 -2.133373,-2.400044 -1.013352,-0.640012 -2.933387,-1.066687 -1.920035,-0.480008 -3.520064,-0.586677 v -3.46673 l 18.56034,-1.173355 0.74668,0.74668 v 42.880786 q 0,1.866701 0.693346,3.09339 0.74668,1.226689 2.293375,1.813367 1.173355,0.480009 2.293376,0.800014 1.12002,0.266672 2.506712,0.373341 z M 61.099844,20.381123 q 0,3.040056 -2.026704,5.333431 -1.973369,2.240041 -4.906756,2.240041 -2.72005,0 -4.746754,-2.133372 -1.973369,-2.186707 -1.973369,-4.960091 0,-2.933387 1.973369,-5.120094 2.026704,-2.186707 4.746754,-2.186707 3.040055,0 4.960091,2.080039 1.973369,2.026703 1.973369,4.746753 z" transform="matrix(1.2625349,0,0,1.2625349,-14.248567,-14.165086)" /></svg>